<?xml version="1.0" encoding="UTF-8"?><svg id="a" xmlns="http://www.w3.org/2000/svg" viewBox="0 0 1280 351.07"><defs><style>.b{fill:#0c0c0c;}</style></defs><g><path class="b" d="M383.91,234.19l11.98,1.81c-2,8.93-5.61,15.68-10.84,20.22-5.23,4.55-11.71,6.82-19.43,6.82-9.72,0-17.59-3.69-23.61-11.08-6.02-7.38-9.03-18.04-9.03-31.97s3.03-25.48,9.11-33.07c6.07-7.59,13.76-11.39,23.06-11.39s16.29,3.73,22.23,11.2c5.94,7.46,8.91,18.26,8.91,32.4l-.08,3.78h-51.24c.47,9.41,2.65,16.5,6.54,21.28,3.89,4.79,8.62,7.17,14.19,7.17,8.72,0,14.79-5.73,18.21-17.18Zm-38.23-22.94h38.31c-.53-7.25-2.08-12.66-4.65-16.24-3.73-5.2-8.49-7.8-14.27-7.8-5.2,0-9.64,2.17-13.32,6.5-3.68,4.34-5.7,10.18-6.07,17.54Z"/><path class="b" d="M405.79,261.15v-83.72h10.48v11.83c2.52-4.6,5.6-8.03,9.25-10.31,3.65-2.27,7.83-3.41,12.55-3.41,3.67,0,7.07,.72,10.19,2.17,3.12,1.45,5.64,3.34,7.56,5.68,1.91,2.34,3.34,5.37,4.29,9.11s1.42,9.46,1.42,17.19v51.48h-11.59v-50.98c0-6.16-.53-10.66-1.58-13.5-1.05-2.84-2.69-5.04-4.93-6.59-2.23-1.55-4.82-2.33-7.77-2.33-5.57,0-10.01,2.08-13.32,6.24-3.31,4.15-4.97,11.28-4.97,21.39v45.77h-11.59Z"/><path class="b" d="M476.15,261.15v-115.57h42.02c8.78,0,15.26,1.08,19.43,3.23,4.18,2.15,7.61,5.74,10.29,10.75,2.68,5.02,4.02,10.83,4.02,17.45,0,8.72-2.27,15.78-6.82,21.19-4.54,5.41-11.15,8.85-19.82,10.32,3.52,2.12,6.2,4.26,8.04,6.42,3.73,4.42,7.02,9.33,9.86,14.74l16.56,31.45h-15.77l-12.64-24.03c-4.9-9.4-8.59-15.73-11.08-19-2.49-3.26-4.91-5.46-7.24-6.59-2.34-1.13-5.61-1.7-9.81-1.7h-14.49v51.32h-12.53Zm12.53-64.56h26.96c5.89,0,10.35-.71,13.4-2.13,3.05-1.42,5.46-3.65,7.25-6.7,1.79-3.05,2.68-6.6,2.68-10.64,0-5.83-1.71-10.42-5.13-13.76-3.42-3.34-8.49-5.01-15.21-5.01h-29.96v38.24Z"/><path class="b" d="M612.19,234.19l11.98,1.81c-2,8.93-5.61,15.68-10.84,20.22-5.23,4.55-11.71,6.82-19.43,6.82-9.72,0-17.59-3.69-23.61-11.08-6.02-7.38-9.03-18.04-9.03-31.97s3.04-25.48,9.11-33.07c6.07-7.59,13.76-11.39,23.06-11.39s16.29,3.73,22.23,11.2,8.91,18.26,8.91,32.4l-.08,3.78h-51.24c.47,9.41,2.65,16.5,6.54,21.28,3.89,4.79,8.62,7.17,14.19,7.17,8.72,0,14.79-5.73,18.21-17.18Zm-38.23-22.94h38.31c-.52-7.25-2.08-12.66-4.65-16.24-3.73-5.2-8.49-7.8-14.27-7.8-5.2,0-9.65,2.17-13.32,6.5-3.68,4.34-5.7,10.18-6.07,17.54Z"/><path class="b" d="M634.15,261.15v-83.72h10.41v11.67c2.31-4.34,5.27-7.68,8.89-10.03,3.62-2.35,7.58-3.53,11.89-3.53,4.82,0,8.91,1.24,12.24,3.72,3.33,2.48,5.71,6.11,7.12,10.86,2.74-4.86,5.89-8.51,9.45-10.94,3.56-2.43,7.5-3.65,11.83-3.65,6.59,0,11.79,2.23,15.58,6.7,3.8,4.47,5.69,11.62,5.69,21.44v57.47h-11.59v-52.8c0-6-.44-10.25-1.31-12.75-.87-2.5-2.28-4.43-4.24-5.8-1.96-1.37-4.15-2.05-6.58-2.05-5.02,0-9.11,1.99-12.28,5.96-3.17,3.97-4.76,10.22-4.76,18.74v48.69h-11.59v-54.45c0-6.95-1.07-11.84-3.19-14.68-2.13-2.84-5.06-4.26-8.79-4.26-5.31,0-9.5,2.14-12.58,6.43-3.07,4.29-4.61,12.12-4.61,23.48v43.48h-11.59Z"/><path class="b" d="M786.42,234.19l11.98,1.81c-2,8.93-5.61,15.68-10.84,20.22-5.23,4.55-11.71,6.82-19.43,6.82-9.72,0-17.59-3.69-23.61-11.08-6.02-7.38-9.03-18.04-9.03-31.97s3.04-25.48,9.11-33.07c6.07-7.59,13.76-11.39,23.06-11.39s16.29,3.73,22.23,11.2c5.94,7.46,8.91,18.26,8.91,32.4l-.08,3.78h-51.24c.47,9.41,2.65,16.5,6.54,21.28,3.89,4.79,8.62,7.17,14.19,7.17,8.72,0,14.79-5.73,18.21-17.18Zm-38.23-22.94h38.31c-.52-7.25-2.08-12.66-4.65-16.24-3.73-5.2-8.49-7.8-14.27-7.8-5.2,0-9.65,2.17-13.32,6.5s-5.7,10.18-6.07,17.54Z"/><path class="b" d="M808.38,261.15v-83.72h10.41v11.67c2.31-4.34,5.27-7.68,8.89-10.03,3.62-2.35,7.58-3.53,11.89-3.53,4.82,0,8.91,1.24,12.24,3.72,3.33,2.48,5.71,6.11,7.12,10.86,2.74-4.86,5.89-8.51,9.45-10.94,3.56-2.43,7.5-3.65,11.83-3.65,6.59,0,11.79,2.23,15.58,6.7,3.8,4.47,5.69,11.62,5.69,21.44v57.47h-11.59v-52.8c0-6-.44-10.25-1.31-12.75-.87-2.5-2.28-4.43-4.24-5.8-1.96-1.37-4.15-2.05-6.58-2.05-5.02,0-9.11,1.99-12.28,5.96-3.17,3.97-4.76,10.22-4.76,18.74v48.69h-11.59v-54.45c0-6.95-1.07-11.84-3.19-14.68-2.13-2.84-5.06-4.26-8.79-4.26-5.31,0-9.5,2.14-12.58,6.43-3.07,4.29-4.61,12.12-4.61,23.48v43.48h-11.59Z"/><path class="b" d="M924.39,261.15h-10.8v-115.57h11.67v41.23c2.47-3.78,5.27-6.61,8.4-8.48,3.13-1.87,6.61-2.8,10.45-2.8,5.36,0,10.23,1.6,14.62,4.81,4.39,3.21,7.9,8.07,10.52,14.58,2.63,6.52,3.94,14.43,3.94,23.73,0,14.19-2.97,25.13-8.92,32.83-5.95,7.7-12.9,11.55-20.85,11.55-4,0-7.59-1.04-10.78-3.12-3.18-2.08-5.93-5.16-8.25-9.26v10.48Zm-.17-42.49c0,8.67,.79,15.16,2.37,19.47,1.58,4.31,3.82,7.6,6.72,9.85,2.9,2.26,6.11,3.39,9.64,3.39,4.79,0,9.05-2.69,12.76-8.08,3.71-5.39,5.57-13.44,5.57-24.16s-1.79-19.05-5.37-24.2c-3.58-5.15-7.98-7.73-13.2-7.73-4.8,0-9.08,2.69-12.84,8.08-3.77,5.39-5.65,13.18-5.65,23.38Z"/><path class="b" d="M982.54,261.15v-83.72h10.48v12.69c2.68-5.89,5.14-9.79,7.37-11.71,2.23-1.92,4.74-2.88,7.53-2.88,3.89,0,7.86,1.52,11.9,4.57l-3.94,13.16c-2.89-2.05-5.7-3.07-8.44-3.07-2.47,0-4.73,.87-6.78,2.6-2.05,1.73-3.5,4.15-4.34,7.25-1.47,5.42-2.21,11.17-2.21,17.26v43.83h-11.59Z"/><path class="b" d="M1066.46,250.82c-3.89,4.05-7.94,7.1-12.14,9.15-4.2,2.05-8.57,3.08-13.09,3.08-7.15,0-12.85-2.15-17.11-6.47-4.26-4.31-6.39-10.12-6.39-17.42,0-4.83,1-9.12,3-12.85,2-3.73,4.73-6.65,8.2-8.75,3.47-2.1,8.72-3.65,15.77-4.65,9.46-1.39,16.4-3.04,20.81-4.96l.08-3.63c0-5.73-1.03-9.75-3.07-12.06-2.89-3.36-7.33-5.05-13.32-5.05-5.41,0-9.46,1.12-12.14,3.37-2.68,2.25-4.65,6.46-5.91,12.64l-11.43-1.89c1.63-8.99,4.93-15.53,9.89-19.63,4.97-4.1,12.07-6.15,21.33-6.15,7.2,0,12.85,1.35,16.95,4.06,4.1,2.71,6.69,6.06,7.77,10.05,1.08,4,1.62,9.83,1.62,17.5v18.92c0,13.24,.25,21.59,.75,25.03,.5,3.44,1.48,6.79,2.95,10.05h-12.14c-1.21-2.89-2-6.33-2.37-10.33Zm-.95-31.69c-4.26,2.1-10.59,3.89-19,5.36-4.89,.84-8.3,1.8-10.25,2.88-1.95,1.08-3.46,2.6-4.54,4.57-1.08,1.97-1.62,4.25-1.62,6.82,0,4,1.23,7.19,3.7,9.58,2.47,2.39,5.89,3.59,10.25,3.59s7.92-1.08,11.31-3.23c3.39-2.15,5.92-5.03,7.61-8.63,1.68-3.6,2.52-8.84,2.52-15.73v-5.2Z"/><path class="b" d="M1090.55,261.15v-83.72h10.48v11.83c2.52-4.6,5.6-8.03,9.25-10.31,3.65-2.27,7.83-3.41,12.55-3.41,3.67,0,7.07,.72,10.19,2.17,3.12,1.45,5.64,3.34,7.55,5.68,1.91,2.34,3.34,5.37,4.29,9.11,.94,3.73,1.42,9.46,1.42,17.19v51.48h-11.59v-50.98c0-6.16-.53-10.66-1.58-13.5-1.05-2.84-2.7-5.04-4.93-6.59-2.23-1.55-4.82-2.33-7.77-2.33-5.57,0-10.01,2.08-13.32,6.24-3.31,4.15-4.96,11.28-4.96,21.39v45.77h-11.59Z"/><path class="b" d="M1204.27,230.48l11.43,1.81c-1.32,9.99-4.61,17.61-9.89,22.86-5.28,5.26-11.63,7.88-19.04,7.88-8.99,0-16.38-3.69-22.19-11.08-5.81-7.38-8.71-18.3-8.71-32.75s2.93-25.48,8.79-32.76c5.86-7.28,13.39-10.92,22.58-10.92,7.1,0,13.07,2.21,17.94,6.62,4.86,4.42,7.97,11.04,9.34,19.87l-11.27,2.05c-1.1-5.65-3.02-9.87-5.75-12.67-2.73-2.8-6.02-4.2-9.85-4.2-5.73,0-10.47,2.54-14.23,7.61-3.76,5.07-5.64,13.13-5.64,24.16s1.8,19.66,5.4,24.75c3.6,5.1,8.21,7.65,13.84,7.65,4.41,0,8.18-1.69,11.31-5.08,3.13-3.39,5.11-8.66,5.95-15.81Z"/><path class="b" d="M1267.62,234.19l11.98,1.81c-2,8.93-5.61,15.68-10.84,20.22-5.23,4.55-11.71,6.82-19.43,6.82-9.72,0-17.59-3.69-23.61-11.08-6.02-7.38-9.03-18.04-9.03-31.97s3.04-25.48,9.11-33.07c6.07-7.59,13.76-11.39,23.06-11.39s16.29,3.73,22.23,11.2c5.94,7.46,8.91,18.26,8.91,32.4l-.08,3.78h-51.24c.47,9.41,2.65,16.5,6.54,21.28,3.89,4.79,8.62,7.17,14.19,7.17,8.72,0,14.79-5.73,18.21-17.18Zm-38.23-22.94h38.31c-.52-7.25-2.08-12.66-4.65-16.24-3.73-5.2-8.49-7.8-14.27-7.8-5.2,0-9.65,2.17-13.32,6.5-3.68,4.34-5.7,10.18-6.07,17.54Z"/></g><g><path class="b" d="M279.9,176.96c.59-.68,1.19-1.35,1.77-2.04,.69-.81,1.37-1.63,2.05-2.46,.57-.7,1.14-1.39,1.69-2.1,.66-.84,1.31-1.69,1.96-2.54,.54-.72,1.09-1.43,1.62-2.16,.63-.86,1.25-1.73,1.86-2.61,.52-.74,1.04-1.48,1.54-2.22,.6-.88,1.18-1.78,1.76-2.67,.49-.76,.99-1.51,1.47-2.28,.57-.91,1.12-1.83,1.67-2.75,.46-.77,.93-1.54,1.38-2.32,.54-.93,1.05-1.88,1.57-2.82,.43-.79,.87-1.57,1.29-2.37,.5-.96,.99-1.92,1.47-2.89,.4-.8,.81-1.6,1.2-2.41,.47-.98,.92-1.98,1.37-2.97,.37-.81,.75-1.62,1.11-2.44,.44-1.01,.86-2.04,1.28-3.07,.34-.81,.68-1.62,1-2.44,.41-1.05,.8-2.12,1.19-3.18,.3-.81,.61-1.62,.89-2.43,.38-1.1,.74-2.21,1.1-3.32,.26-.79,.53-1.58,.78-2.38,.36-1.17,.69-2.36,1.02-3.54,.21-.75,.44-1.5,.64-2.26,.35-1.33,.67-2.67,.99-4.01,.15-.62,.32-1.24,.46-1.86,.45-1.97,.86-3.96,1.23-5.96l1.15-6.17-6.23-.81c-6.94-.9-13.98-1.36-20.92-1.36-1.62,0-3.23,.03-4.84,.07-.53,.02-1.06,.05-1.59,.07-1.08,.04-2.16,.08-3.23,.15-.63,.04-1.26,.09-1.89,.14-.97,.07-1.94,.14-2.91,.22-.68,.06-1.35,.14-2.03,.21-.91,.09-1.83,.19-2.74,.3-.7,.08-1.4,.18-2.1,.28-.88,.12-1.77,.24-2.65,.37-.71,.11-1.41,.22-2.11,.34-.87,.14-1.74,.29-2.6,.44-.71,.13-1.41,.27-2.11,.4-.85,.17-1.71,.34-2.56,.52-.71,.15-1.41,.31-2.11,.47-.84,.19-1.68,.38-2.52,.59-.71,.17-1.41,.35-2.11,.53-.83,.21-1.66,.43-2.49,.66-.7,.19-1.4,.39-2.09,.59-.82,.24-1.64,.48-2.46,.73-.69,.21-1.39,.43-2.08,.65-.81,.26-1.62,.53-2.43,.81-.68,.23-1.37,.46-2.05,.71-.81,.29-1.61,.58-2.42,.88-.67,.25-1.34,.5-2.01,.76-.81,.31-1.61,.64-2.41,.96-.66,.27-1.32,.53-1.97,.81-.8,.34-1.6,.69-2.4,1.04-.64,.28-1.28,.56-1.92,.85-.81,.37-1.61,.75-2.41,1.14-.62,.29-1.23,.58-1.84,.88-.83,.41-1.66,.84-2.49,1.26-.57,.29-1.14,.58-1.71,.88-.9,.48-1.79,.97-2.68,1.46-.48,.27-.97,.53-1.45,.8-1.29,.73-2.58,1.49-3.85,2.26-.12,.08-.25,.15-.37,.23-1.28,.78-2.55,1.58-3.81,2.39-.47,.31-.94,.63-1.41,.94-.84,.56-1.68,1.11-2.51,1.68-.53,.37-1.06,.75-1.59,1.12-.76,.54-1.51,1.07-2.26,1.62-.55,.41-1.09,.82-1.64,1.24-.71,.54-1.42,1.07-2.12,1.62-.56,.44-1.11,.88-1.66,1.33-.68,.54-1.35,1.09-2.02,1.64-.55,.46-1.1,.93-1.65,1.4-.65,.56-1.31,1.11-1.95,1.68-.55,.48-1.09,.97-1.63,1.46-.63,.57-1.26,1.14-1.89,1.73-.54,.5-1.07,1.01-1.6,1.52-.62,.59-1.23,1.19-1.84,1.79-.52,.52-1.04,1.04-1.55,1.56-.6,.61-1.2,1.23-1.8,1.86-.5,.53-1,1.06-1.5,1.6-.59,.64-1.17,1.28-1.75,1.93-.48,.54-.97,1.08-1.44,1.63-.58,.66-1.15,1.34-1.72,2.01-.46,.55-.92,1.09-1.38,1.65-.57,.7-1.13,1.4-1.69,2.11-.44,.55-.87,1.1-1.3,1.65-.17,.22-.35,.44-.53,.67-.16-.21-.33-.41-.49-.62-.46-.6-.94-1.2-1.41-1.79-.53-.66-1.05-1.32-1.59-1.98-.48-.59-.98-1.17-1.47-1.76-.54-.64-1.08-1.27-1.63-1.9-.51-.58-1.02-1.15-1.53-1.73-.55-.62-1.11-1.23-1.67-1.84-.52-.56-1.05-1.12-1.57-1.68-.57-.6-1.15-1.19-1.72-1.78-.54-.55-1.07-1.09-1.62-1.63-.58-.58-1.17-1.15-1.77-1.72-.55-.53-1.11-1.06-1.66-1.58-.6-.56-1.21-1.11-1.82-1.67-.56-.51-1.13-1.02-1.7-1.52-.62-.54-1.25-1.08-1.88-1.61-.57-.49-1.15-.98-1.73-1.46-.64-.53-1.29-1.05-1.94-1.57-.58-.47-1.16-.94-1.75-1.39-.67-.52-1.34-1.03-2.02-1.54-.58-.44-1.16-.88-1.75-1.31-.7-.51-1.4-1.01-2.11-1.51-.58-.41-1.16-.83-1.74-1.23-.76-.52-1.52-1.02-2.29-1.53-.54-.36-1.08-.73-1.63-1.09-1.01-.65-2.03-1.29-3.06-1.92-.61-.38-1.23-.75-1.84-1.12-1.03-.62-2.06-1.23-3.11-1.82-.55-.31-1.11-.61-1.66-.92-.82-.45-1.64-.91-2.47-1.35-.61-.32-1.23-.63-1.85-.95-.78-.4-1.56-.8-2.34-1.19-.65-.32-1.3-.62-1.95-.93-.77-.37-1.53-.73-2.31-1.09-.66-.3-1.33-.59-2-.89-.77-.34-1.54-.68-2.32-1.01-.68-.29-1.37-.56-2.05-.84-.77-.31-1.54-.62-2.32-.93-.69-.27-1.39-.53-2.09-.79-.78-.29-1.56-.58-2.35-.86-.7-.25-1.4-.49-2.1-.73-.79-.27-1.58-.53-2.38-.79-.71-.23-1.42-.45-2.13-.67-.8-.24-1.6-.48-2.4-.72-.71-.21-1.43-.41-2.15-.61-.81-.22-1.62-.44-2.43-.64-.72-.19-1.44-.37-2.16-.54-.82-.2-1.64-.39-2.47-.58-.72-.16-1.44-.32-2.16-.48-.84-.18-1.67-.34-2.51-.51-.72-.14-1.43-.28-2.15-.41-.86-.15-1.71-.3-2.57-.44-.71-.12-1.42-.24-2.14-.34-.87-.13-1.75-.25-2.63-.37-.7-.09-1.4-.19-2.11-.28-.91-.11-1.81-.2-2.72-.29-.68-.07-1.36-.15-2.04-.21-.95-.09-1.91-.15-2.86-.22-.64-.05-1.29-.1-1.93-.14-1.06-.06-2.13-.11-3.2-.15-.54-.02-1.07-.05-1.61-.07-1.61-.05-3.22-.07-4.84-.07-9.97,0-19.94,.92-29.62,2.74l-5.88,1.11,1.14,5.87c.41,2.09,.86,4.17,1.34,6.23,.16,.69,.35,1.37,.53,2.06,.34,1.36,.67,2.73,1.05,4.07,.22,.81,.48,1.6,.71,2.4,.36,1.22,.71,2.44,1.09,3.64,.27,.84,.56,1.66,.84,2.49,.39,1.15,.77,2.3,1.18,3.44,.31,.85,.65,1.69,.97,2.53,.42,1.1,.83,2.2,1.28,3.29,.35,.85,.72,1.68,1.07,2.52,.46,1.07,.91,2.14,1.39,3.19,.38,.83,.78,1.65,1.17,2.48,.49,1.04,.98,2.08,1.5,3.1,.41,.82,.85,1.63,1.27,2.45,.53,1.01,1.05,2.01,1.6,3.01,.45,.81,.91,1.61,1.37,2.41,.56,.98,1.12,1.95,1.7,2.91,.48,.79,.97,1.57,1.46,2.36,.6,.95,1.19,1.9,1.81,2.84,.51,.77,1.03,1.53,1.54,2.29,.63,.93,1.26,1.85,1.91,2.76,.53,.75,1.08,1.49,1.63,2.23,.66,.9,1.33,1.79,2.01,2.68,.56,.73,1.14,1.45,1.71,2.17,.69,.87,1.39,1.73,2.1,2.59,.59,.71,1.19,1.41,1.8,2.11,.72,.84,1.45,1.67,2.19,2.5,.62,.69,1.24,1.37,1.87,2.04,.75,.81,1.52,1.61,2.29,2.41,.64,.66,1.29,1.32,1.95,1.97,.78,.78,1.58,1.55,2.38,2.32,.67,.64,1.34,1.27,2.02,1.9,.81,.75,1.63,1.49,2.46,2.22,.69,.61,1.39,1.22,2.09,1.82,.84,.72,1.69,1.43,2.54,2.13,.72,.59,1.44,1.17,2.16,1.74,.87,.69,1.74,1.36,2.62,2.03,.74,.56,1.48,1.12,2.23,1.67,.89,.65,1.8,1.29,2.7,1.93,.76,.53,1.52,1.06,2.29,1.58,.92,.62,1.85,1.22,2.78,1.82,.78,.5,1.56,1.01,2.35,1.5,.94,.58,1.9,1.15,2.85,1.72,.8,.47,1.6,.95,2.41,1.41,.97,.55,1.94,1.08,2.92,1.61,.82,.44,1.64,.89,2.47,1.32,.99,.51,1.99,1.01,2.99,1.5,.84,.41,1.68,.83,2.52,1.23,1.01,.48,2.03,.93,3.06,1.38,.86,.38,1.71,.77,2.58,1.14,1.03,.44,2.08,.85,3.13,1.27,.87,.35,1.74,.7,2.61,1.04,1.06,.4,2.13,.78,3.2,1.16,.88,.31,1.76,.64,2.65,.94,1.09,.37,2.19,.7,3.28,1.04,.89,.28,1.77,.57,2.66,.83,1.12,.33,2.26,.63,3.39,.93,.89,.24,1.77,.49,2.67,.72,1.17,.29,2.34,.55,3.52,.82,.87,.2,1.74,.41,2.62,.6,1.25,.26,2.51,.49,3.76,.72,.82,.15,1.64,.32,2.47,.46,.05,0,.1,.02,.16,.03-.03,.23-.06,.46-.09,.69-.1,.68-.17,1.37-.26,2.06-.2,1.58-.39,3.16-.55,4.75-.08,.79-.15,1.58-.22,2.37-.13,1.58-.24,3.15-.33,4.73-.04,.71-.09,1.41-.12,2.12-.09,2.26-.16,4.52-.16,6.78,0,32.65,9.73,64.08,28.14,90.89l4.9,7.14,4.9-7.14c18.4-26.83,28.12-58.26,28.12-90.89,0-2.4-.07-4.8-.17-7.19-.03-.77-.09-1.53-.13-2.3-.1-1.64-.21-3.27-.35-4.9-.08-.87-.16-1.73-.25-2.6-.17-1.59-.36-3.18-.58-4.76-.11-.79-.21-1.58-.33-2.37-.05-.34-.09-.69-.14-1.04,.05-.01,.11-.03,.16-.04,.59-.13,1.16-.29,1.75-.43,1.38-.33,2.76-.65,4.12-1.02,.71-.19,1.41-.41,2.12-.6,1.23-.35,2.46-.69,3.67-1.06,.76-.23,1.5-.49,2.26-.74,1.15-.37,2.31-.74,3.45-1.14,.78-.27,1.55-.57,2.33-.85,1.1-.4,2.2-.8,3.28-1.23,.79-.31,1.57-.64,2.35-.96,1.06-.43,2.11-.86,3.16-1.32,.79-.34,1.57-.71,2.35-1.07,1.02-.47,2.05-.93,3.06-1.42,.78-.38,1.56-.77,2.33-1.16,.99-.5,1.98-.99,2.96-1.51,.78-.41,1.55-.84,2.32-1.26,.96-.53,1.92-1.06,2.87-1.6,.76-.44,1.52-.9,2.28-1.35,.94-.56,1.87-1.12,2.8-1.7,.75-.47,1.49-.95,2.23-1.43,.91-.59,1.82-1.18,2.72-1.79,.74-.5,1.46-1.01,2.19-1.52,.88-.62,1.76-1.24,2.63-1.88,.72-.53,1.43-1.07,2.15-1.61,.86-.65,1.71-1.3,2.55-1.97,.7-.56,1.4-1.12,2.09-1.69,.83-.68,1.65-1.36,2.47-2.05,.68-.58,1.36-1.17,2.03-1.76,.8-.71,1.6-1.42,2.39-2.14,.66-.61,1.32-1.22,1.97-1.83,.78-.73,1.54-1.47,2.31-2.22,.64-.63,1.28-1.26,1.91-1.9,.75-.76,1.49-1.53,2.22-2.3,.62-.65,1.23-1.31,1.84-1.98,.72-.79,1.43-1.58,2.13-2.38Zm24.38-72.39c-2.89,12.49-7.38,24.4-13.24,35.5-20.04,37.98-56.08,66.44-98.9,76.14-4.19-18-11.43-34.96-21.56-50.57,28-38.67,72.82-61.64,120.69-61.64,4.31,0,8.67,.19,13.01,.57Zm-140.88,71.97c7.84,13.05,13.55,27.07,17.05,41.84-11.28,1.63-22.88,1.95-34.35,.96,3.5-15.15,9.29-29.48,17.3-42.8ZM35.5,104.01c9.22,0,18.33,.85,27.23,2.51,1.83,.34,3.65,.73,5.46,1.13,26.41,5.94,50.73,18.97,70.33,37.71,6.45,6.17,12.38,12.94,17.71,20.29-10.43,16.05-17.8,33.56-21.95,52.2-59.09-9.87-106.36-54.07-120.17-112.31,7.05-1.02,14.23-1.54,21.4-1.54Zm127.89,225.57c-13.87-23.07-21.15-49.35-21.15-76.54,0-2.3,.05-4.59,.16-6.89,.23-5.05,.74-10.08,1.48-15.06,5.05,.47,10.14,.72,15.19,.72,7.94,0,15.87-.61,23.67-1.77,1.17,7.53,1.8,15.24,1.8,23,0,27.18-7.28,53.46-21.14,76.54Z"/><path class="b" d="M163.39,110.12c-30.36,0-55.06-24.7-55.06-55.06S133.03,0,163.39,0s55.06,24.7,55.06,55.06-24.7,55.06-55.06,55.06Zm0-95.86c-22.5,0-40.8,18.3-40.8,40.8s18.3,40.8,40.8,40.8,40.8-18.3,40.8-40.8-18.3-40.8-40.8-40.8Z"/></g></svg>